<svg width="32" height="30" viewBox="0 0 32 30" fill="none" xmlns="http://www.w3.org/2000/svg">
<path d="M13.7335 5.61519C14.0557 5.58158 14.388 5.61572 14.701 5.69392C15.6281 5.92561 16.2567 6.49481 16.7343 7.29074C17.114 7.25044 17.4978 7.27394 17.8696 7.36022C18.6632 7.55694 19.3475 8.0512 19.7769 8.73777C19.9888 9.07607 20.1295 9.45296 20.1906 9.84599C20.2516 10.239 20.2317 10.6401 20.1321 11.0254C19.8668 12.0281 19.2302 12.5502 18.3631 13.0503C18.3872 13.6659 18.3781 14.2845 18.3795 14.9006C18.3802 15.2898 18.4057 15.6959 18.3675 16.0822C18.3511 16.2461 18.3191 16.3803 18.2339 16.522C18.1094 16.611 17.982 16.638 17.8306 16.6563C17.4339 16.7039 17.0029 16.6717 16.6029 16.6708L14.2438 16.6624C13.4048 16.7244 12.5162 16.6658 11.672 16.6664C11.1101 16.6669 10.4775 16.7327 9.92259 16.6702C9.72461 16.6479 9.64013 16.5175 9.5318 16.3719C9.46181 15.2669 9.52125 14.1251 9.52172 13.016C9.05956 12.7799 8.66645 12.4901 8.34454 12.0827C8.10434 11.7788 7.92771 11.4309 7.82485 11.0593C7.722 10.6876 7.69498 10.2995 7.74534 9.91748C7.86585 9.10454 8.30632 8.37104 8.97144 7.87572C9.62928 7.38971 10.408 7.19163 11.2187 7.3029C11.3316 7.10719 11.4442 6.91069 11.5843 6.73227C12.1245 6.04427 12.8771 5.72287 13.7335 5.61519ZM13.7787 6.97239C13.2523 7.07566 12.7988 7.2638 12.4812 7.71929C12.3034 7.97426 12.141 8.70692 11.9194 8.8188C11.626 8.85338 11.319 8.71854 11.0347 8.6567C10.464 8.53252 9.81903 8.75897 9.46534 9.2175C9.17444 9.59461 9.03747 10.1146 9.11536 10.5827C9.18587 11.0061 9.44485 11.3612 9.79923 11.6038C10.1859 11.8686 10.617 11.9212 10.8841 12.3369C10.9333 13.2999 10.8976 14.2797 10.8991 15.2448C12.0231 15.2361 13.1471 15.2337 14.2711 15.2376L17.0167 15.2321C17.0164 14.7429 16.9108 12.31 17.1394 12.0711C17.2468 11.9591 17.4925 11.8907 17.6377 11.8344C18.2918 11.5801 18.7704 11.1393 18.8301 10.4138C18.8698 9.9347 18.7133 9.504 18.3912 9.14684C18.0978 8.82163 17.7149 8.64913 17.2741 8.62323C16.8871 8.60045 16.0904 8.96573 15.8472 8.69379C15.7289 8.56136 15.6816 8.33415 15.6212 8.16774C15.3737 7.48301 14.8561 7.0856 14.1281 6.99126C14.0113 6.97616 13.8962 6.96995 13.7787 6.97239Z" fill="white"/>
<path d="M26.7021 1.37294C26.9457 1.3554 27.2379 1.35856 27.4301 1.53379C27.6092 1.69693 27.6176 1.95871 27.5579 2.17666C27.4134 2.70472 26.95 3.33704 26.6712 3.81732C26.225 4.5856 25.8085 5.37507 25.3754 6.1516C25.1075 6.63249 24.7832 7.12434 24.5688 7.62682C24.5007 7.78663 24.449 7.95439 24.4567 8.12962C24.4632 8.28182 24.5171 8.39636 24.6343 8.49626C24.8003 8.63755 25.0194 8.74785 25.2447 8.71822C25.3947 8.69853 25.5148 8.61997 25.6076 8.50461C25.9254 8.10982 26.1136 7.55996 26.3458 7.1133L27.9463 4.02433C28.1355 3.655 28.3022 3.20188 28.568 2.88256C28.7085 2.71372 28.8391 2.63351 29.0634 2.61464C29.2406 2.59972 29.4131 2.64549 29.55 2.76039C29.712 2.89673 29.7877 3.11626 29.7557 3.32262C29.6941 3.71939 29.3407 4.20128 29.1522 4.56293L27.6991 7.41181C27.44 7.92563 27.136 8.45091 26.9271 8.98618C26.8787 9.11065 26.8303 9.25004 26.8485 9.38517C26.8696 9.54354 26.9871 9.68264 27.1153 9.77239C27.2587 9.8728 27.4538 9.93941 27.63 9.90067C27.8327 9.85608 27.9747 9.70976 28.0882 9.54694C28.3467 9.17705 28.5177 8.69121 28.7081 8.28182L29.9486 5.65282C30.1823 5.15371 30.3952 4.56759 30.7068 4.11429C30.8189 3.95119 30.9394 3.82101 31.1457 3.78948C31.3547 3.75759 31.5661 3.84519 31.7238 3.97597C31.8552 4.0848 31.9531 4.21254 31.9589 4.38666C31.9742 4.83364 31.1538 6.38534 30.9306 6.88415L30.0516 8.84865C29.6199 9.81741 29.2515 10.7886 28.5239 11.5901C27.8072 12.3794 26.9919 12.7143 26.008 13.0663C25.8005 13.1406 25.4824 13.2138 25.3062 13.3395C24.9583 13.5882 24.7158 14.048 24.5116 14.4107C24.3551 14.6894 24.1549 14.9923 24.0567 15.2969C23.9122 15.7457 24.0079 17.1182 24.0079 17.6599L24.0064 24.6559L24.0101 26.7949C24.0108 27.2139 24.0363 27.6519 23.9897 28.068C23.9726 28.2204 23.9122 28.3904 23.799 28.4998C23.4583 28.8306 22.2029 28.7136 21.7209 28.7111L18.4355 28.7068C18.6248 28.2046 18.8589 27.7111 19.1057 27.2336C19.5319 27.1895 19.9701 27.2085 20.3989 27.2081L22.5181 27.2092L22.5184 18.0666C22.244 18.7167 21.8946 19.3525 21.5786 19.9847C21.0166 21.1042 20.4607 22.2267 19.9108 23.352C19.2471 24.721 18.5728 26.0849 17.8881 27.4438C17.6016 28.0116 17.3472 28.6103 17.0218 29.157C16.8897 29.3787 16.7302 29.5788 16.5093 29.7212C16.2092 29.9128 15.845 29.9811 15.4945 29.9117C15.3241 29.8766 15.1629 29.8071 15.021 29.7078C14.879 29.6084 14.7595 29.4812 14.6697 29.3342C14.4797 29.0286 14.4313 28.686 14.5347 28.3424C14.7035 27.781 15.0592 27.2393 15.3398 26.725L16.6757 24.2804C18.2936 21.3183 19.925 18.3575 21.4902 15.3682C21.8592 14.6636 22.6946 13.3282 22.8955 12.6644C23.1147 11.942 22.6546 11.0771 22.5199 10.3665C22.3987 9.72745 22.4136 9.11212 22.5781 8.48177C22.6472 8.21233 22.7449 7.95083 22.8697 7.70161C23.0833 7.28081 23.3411 6.87795 23.5791 6.47014L24.813 4.34003L25.8089 2.61299C26.0055 2.27258 26.1922 1.9058 26.4302 1.59229C26.5045 1.49444 26.5966 1.4345 26.7021 1.37294Z" fill="white"/>
<path d="M4.30322 0.0928586C5.44557 0.0332056 6.61325 0.0842858 7.75866 0.085326L14.3232 0.0877289L20.2792 0.0847874C21.2452 0.0846798 22.2491 0.0295827 23.2118 0.0907064C23.4088 0.103189 23.6326 0.158035 23.7815 0.293806C23.9122 0.413004 23.9682 0.622453 23.9933 0.78936C24.0443 1.12791 24.0141 1.49899 24.0134 1.84217L24.005 3.78858C23.5282 4.55521 23.0062 5.3001 22.5053 6.05199C22.5494 5.54754 22.5188 5.02296 22.5188 4.51586L22.5184 1.66335C16.8074 1.6683 11.0892 1.72021 5.37867 1.65991C5.32097 3.99609 5.37382 6.34709 5.37375 8.68461L5.37688 21.606L13.0743 21.6028L15.4578 21.5985C15.8989 21.5977 16.3685 21.5669 16.8056 21.6221C16.6433 22.1249 16.3346 22.63 16.0947 23.1035L8.16032 23.0866L5.77152 23.0855C5.2271 23.0866 4.65996 23.0608 4.12078 23.1397C3.65661 23.2051 3.21931 23.394 2.85592 23.686C2.41167 24.0408 2.08823 24.5541 2.04189 25.1237C2.00109 25.6252 2.20001 26.1094 2.526 26.4879C2.832 26.843 3.30228 27.1116 3.76651 27.1992C4.44488 27.3272 5.45307 27.2365 6.16732 27.2386L11.0219 27.2429C11.9245 27.2436 12.8439 27.2056 13.7437 27.2713C13.5839 27.7383 13.438 28.2437 13.347 28.728C12.5328 28.6559 11.6659 28.7147 10.845 28.7147L5.98347 28.7136C5.13745 28.7158 4.17451 28.8126 3.34898 28.6358C2.76925 28.5117 2.22508 28.2104 1.7717 27.838C1.04059 27.2383 0.5805 26.3124 0.50581 25.3823C0.46406 24.8622 0.494271 24.3227 0.496601 23.8008L0.49773 21.2678L0.497294 12.5082L0.495583 6.43415C0.495001 5.65289 0.422128 4.27904 0.528559 3.54161C0.628202 2.81028 0.942069 2.12345 1.43173 1.56521C2.15294 0.718633 3.18582 0.189024 4.30322 0.0928586ZM3.85099 1.72691C3.04679 2.05308 2.45658 2.46162 2.1141 3.27746C1.99592 3.55897 1.96439 3.90595 1.95413 4.20913C1.90383 5.69561 1.95027 7.20021 1.95129 8.68895L1.95249 17.2824L1.95311 21.0922C1.95347 21.5238 1.87249 22.1123 1.96814 22.5238L2.0025 22.5356L2.05576 22.5012C2.66187 22.0532 3.17576 21.8082 3.92044 21.6527C3.86224 19.5289 3.9132 17.3892 3.9155 15.2642C3.91808 12.8759 3.87626 10.4825 3.90345 8.09475C3.91912 6.53233 3.92243 4.96982 3.91338 3.40735C3.91316 3.03128 3.97526 2.05083 3.90217 1.74198L3.85099 1.72691Z" fill="white"/>
</svg>
