<svg xmlns="http://www.w3.org/2000/svg">
<!-- checkbox  -->
    <symbol id="checkbox_icon" viewBox="0 0 16 16" fill="none" xmlns="http://www.w3.org/2000/svg">
  <path d="M3.5 7.47059L6.83333 11L12.5 5" stroke="white" stroke-width="1.5" stroke-linecap="round" stroke-linejoin="round" />
</symbol>
<!-- logo -->
    <symbol id= "logo_icon" viewBox="0 0 32 30" fill="none" xmlns="http://www.w3.org/2000/svg">
  <path d="M13.7335 5.61519C14.0557 5.58158 14.388 5.61572 14.701 5.69392C15.6281 5.92561 16.2567 6.49481 16.7343 7.29074C17.114 7.25044 17.4978 7.27394 17.8696 7.36022C18.6632 7.55694 19.3475 8.0512 19.7769 8.73777C19.9888 9.07607 20.1295 9.45296 20.1906 9.84599C20.2516 10.239 20.2317 10.6401 20.1321 11.0254C19.8668 12.0281 19.2302 12.5502 18.3631 13.0503C18.3872 13.6659 18.3781 14.2845 18.3795 14.9006C18.3802 15.2898 18.4057 15.6959 18.3675 16.0822C18.3511 16.2461 18.3191 16.3803 18.2339 16.522C18.1094 16.611 17.982 16.638 17.8306 16.6563C17.4339 16.7039 17.0029 16.6717 16.6029 16.6708L14.2438 16.6624C13.4048 16.7244 12.5162 16.6658 11.672 16.6664C11.1101 16.6669 10.4775 16.7327 9.92259 16.6702C9.72461 16.6479 9.64013 16.5175 9.5318 16.3719C9.46181 15.2669 9.52125 14.1251 9.52172 13.016C9.05956 12.7799 8.66645 12.4901 8.34454 12.0827C8.10434 11.7788 7.92771 11.4309 7.82485 11.0593C7.722 10.6876 7.69498 10.2995 7.74534 9.91748C7.86585 9.10454 8.30632 8.37104 8.97144 7.87572C9.62928 7.38971 10.408 7.19163 11.2187 7.3029C11.3316 7.10719 11.4442 6.91069 11.5843 6.73227C12.1245 6.04427 12.8771 5.72287 13.7335 5.61519ZM13.7787 6.97239C13.2523 7.07566 12.7988 7.2638 12.4812 7.71929C12.3034 7.97426 12.141 8.70692 11.9194 8.8188C11.626 8.85338 11.319 8.71854 11.0347 8.6567C10.464 8.53252 9.81903 8.75897 9.46534 9.2175C9.17444 9.59461 9.03747 10.1146 9.11536 10.5827C9.18587 11.0061 9.44485 11.3612 9.79923 11.6038C10.1859 11.8686 10.617 11.9212 10.8841 12.3369C10.9333 13.2999 10.8976 14.2797 10.8991 15.2448C12.0231 15.2361 13.1471 15.2337 14.2711 15.2376L17.0167 15.2321C17.0164 14.7429 16.9108 12.31 17.1394 12.0711C17.2468 11.9591 17.4925 11.8907 17.6377 11.8344C18.2918 11.5801 18.7704 11.1393 18.8301 10.4138C18.8698 9.9347 18.7133 9.504 18.3912 9.14684C18.0978 8.82163 17.7149 8.64913 17.2741 8.62323C16.8871 8.60045 16.0904 8.96573 15.8472 8.69379C15.7289 8.56136 15.6816 8.33415 15.6212 8.16774C15.3737 7.48301 14.8561 7.0856 14.1281 6.99126C14.0113 6.97616 13.8962 6.96995 13.7787 6.97239Z" fill="white" />
  <path d="M26.7017 1.37294C26.9452 1.3554 27.2374 1.35856 27.4296 1.53379C27.6087 1.69693 27.6171 1.95871 27.5574 2.17666C27.4129 2.70472 26.9495 3.33704 26.6707 3.81732C26.2245 4.5856 25.8081 5.37507 25.3749 6.1516C25.107 6.63249 24.7827 7.12434 24.5683 7.62682C24.5002 7.78663 24.4485 7.95439 24.4562 8.12962C24.4627 8.28182 24.5166 8.39636 24.6338 8.49626C24.7998 8.63755 25.0189 8.74785 25.2442 8.71822C25.3942 8.69853 25.5143 8.61997 25.6071 8.50461C25.9249 8.10982 26.1131 7.55996 26.3453 7.1133L27.9458 4.02433C28.135 3.655 28.3018 3.20188 28.5675 2.88256C28.708 2.71372 28.8386 2.63351 29.0629 2.61464C29.2401 2.59972 29.4127 2.64549 29.5495 2.76039C29.7115 2.89673 29.7872 3.11626 29.7552 3.32262C29.6937 3.71939 29.3402 4.20128 29.1517 4.56293L27.6986 7.41181C27.4395 7.92563 27.1355 8.45091 26.9266 8.98618C26.8782 9.11065 26.8298 9.25004 26.848 9.38517C26.8691 9.54354 26.9867 9.68264 27.1148 9.77239C27.2582 9.8728 27.4533 9.93941 27.6295 9.90067C27.8322 9.85608 27.9742 9.70976 28.0877 9.54694C28.3462 9.17705 28.5172 8.69121 28.7076 8.28182L29.9481 5.65282C30.1818 5.15371 30.3947 4.56759 30.7063 4.11429C30.8184 3.95119 30.9389 3.82101 31.1453 3.78948C31.3542 3.75759 31.5657 3.84519 31.7233 3.97597C31.8547 4.0848 31.9526 4.21254 31.9584 4.38666C31.9737 4.83364 31.1533 6.38534 30.9301 6.88415L30.0511 8.84865C29.6194 9.81741 29.251 10.7886 28.5234 11.5901C27.8067 12.3794 26.9914 12.7143 26.0075 13.0663C25.8 13.1406 25.4819 13.2138 25.3057 13.3395C24.9578 13.5882 24.7154 14.048 24.5112 14.4107C24.3546 14.6894 24.1544 14.9923 24.0562 15.2969C23.9117 15.7457 24.0074 17.1182 24.0074 17.6599L24.0059 24.6559L24.0096 26.7949C24.0103 27.2139 24.0358 27.6519 23.9892 28.068C23.9721 28.2204 23.9117 28.3904 23.7985 28.4998C23.4578 28.8306 22.2024 28.7136 21.7204 28.7111L18.4351 28.7068C18.6243 28.2046 18.8584 27.7111 19.1052 27.2336C19.5314 27.1895 19.9696 27.2085 20.3984 27.2081L22.5176 27.2092L22.5179 18.0666C22.2435 18.7167 21.8941 19.3525 21.5781 19.9847C21.0161 21.1042 20.4602 22.2267 19.9103 23.352C19.2466 24.721 18.5723 26.0849 17.8876 27.4438C17.6012 28.0116 17.3467 28.6103 17.0213 29.157C16.8892 29.3787 16.7298 29.5788 16.5088 29.7212C16.2087 29.9128 15.8445 29.9811 15.494 29.9117C15.3236 29.8766 15.1624 29.8071 15.0205 29.7078C14.8786 29.6084 14.759 29.4812 14.6692 29.3342C14.4792 29.0286 14.4308 28.686 14.5342 28.3424C14.7031 27.781 15.0587 27.2393 15.3393 26.725L16.6752 24.2804C18.2931 21.3183 19.9245 18.3575 21.4897 15.3682C21.8588 14.6636 22.6941 13.3282 22.895 12.6644C23.1142 11.942 22.6541 11.0771 22.5194 10.3665C22.3982 9.72745 22.4131 9.11212 22.5776 8.48177C22.6467 8.21233 22.7444 7.95083 22.8692 7.70161C23.0829 7.28081 23.3406 6.87795 23.5786 6.47014L24.8125 4.34003L25.8084 2.61299C26.005 2.27258 26.1917 1.9058 26.4298 1.59229C26.504 1.49444 26.5961 1.4345 26.7017 1.37294Z" fill="white" />
  <path d="M4.30322 0.0928586C5.44557 0.0332056 6.61325 0.0842858 7.75866 0.085326L14.3232 0.0877289L20.2792 0.0847874C21.2452 0.0846798 22.2491 0.0295827 23.2118 0.0907064C23.4088 0.103189 23.6326 0.158035 23.7815 0.293806C23.9122 0.413004 23.9682 0.622453 23.9933 0.78936C24.0443 1.12791 24.0141 1.49899 24.0134 1.84217L24.005 3.78858C23.5282 4.55521 23.0062 5.3001 22.5053 6.05199C22.5494 5.54754 22.5188 5.02296 22.5188 4.51586L22.5184 1.66335C16.8074 1.6683 11.0892 1.72021 5.37867 1.65991C5.32097 3.99609 5.37382 6.34709 5.37375 8.68461L5.37688 21.606L13.0743 21.6028L15.4578 21.5985C15.8989 21.5977 16.3685 21.5669 16.8056 21.6221C16.6433 22.1249 16.3346 22.63 16.0947 23.1035L8.16032 23.0866L5.77152 23.0855C5.2271 23.0866 4.65996 23.0608 4.12078 23.1397C3.65661 23.2051 3.21931 23.394 2.85592 23.686C2.41167 24.0408 2.08823 24.5541 2.04189 25.1237C2.00109 25.6252 2.20001 26.1094 2.526 26.4879C2.832 26.843 3.30228 27.1116 3.76651 27.1992C4.44488 27.3272 5.45307 27.2365 6.16732 27.2386L11.0219 27.2429C11.9245 27.2436 12.8439 27.2056 13.7437 27.2713C13.5839 27.7383 13.438 28.2437 13.347 28.728C12.5328 28.6559 11.6659 28.7147 10.845 28.7147L5.98347 28.7136C5.13745 28.7158 4.17451 28.8126 3.34898 28.6358C2.76925 28.5117 2.22508 28.2104 1.7717 27.838C1.04059 27.2383 0.5805 26.3124 0.50581 25.3823C0.46406 24.8622 0.494271 24.3227 0.496601 23.8008L0.49773 21.2678L0.497294 12.5082L0.495583 6.43415C0.495001 5.65289 0.422128 4.27904 0.528559 3.54161C0.628202 2.81028 0.942069 2.12345 1.43173 1.56521C2.15294 0.718633 3.18582 0.189024 4.30322 0.0928586ZM3.85099 1.72691C3.04679 2.05308 2.45658 2.46162 2.1141 3.27746C1.99592 3.55897 1.96439 3.90595 1.95413 4.20913C1.90383 5.69561 1.95027 7.20021 1.95129 8.68895L1.95249 17.2824L1.95311 21.0922C1.95347 21.5238 1.87249 22.1123 1.96814 22.5238L2.0025 22.5356L2.05576 22.5012C2.66187 22.0532 3.17576 21.8082 3.92044 21.6527C3.86224 19.5289 3.9132 17.3892 3.9155 15.2642C3.91808 12.8759 3.87626 10.4825 3.90345 8.09475C3.91912 6.53233 3.92243 4.96982 3.91338 3.40735C3.91316 3.03128 3.97526 2.05083 3.90217 1.74198L3.85099 1.72691Z" fill="white" />
</symbol>
<!-- лого для виходу  -->
<symbol  id= "exit_logo"viewBox="0 0 24 24" fill="none" xmlns="http://www.w3.org/2000/svg">
  <path d="M9.80769 4.875L7.06731 4.875C5.85653 4.875 4.875 5.85653 4.875 7.06731L4.875 16.9327C4.875 18.1435 5.85653 19.125 7.06731 19.125H9.80769M8.625 12L19.5865 12M19.5865 12L16.2981 15.2885M19.5865 12L16.2981 8.71154" stroke="white" stroke-linecap="round" stroke-linejoin="round" />
</symbol>
<!-- add_recipe icon -->
<symbol  id="add_recipe" viebox="0 0 25 24" fill="none" xmlns="http://www.w3.org/2000/svg">
 
  <path d="M12.4971 3.5C13.7607 3.50001 14.9206 3.62091 15.8398 3.76074C17.0036 3.93777 17.916 4.7353 18.1758 5.84961C18.4894 7.19485 18.7969 9.24141 18.7441 11.9902C18.6859 15.0233 18.2432 17.2117 17.8164 18.6396C17.701 19.0256 17.4339 19.2243 17.1318 19.2754C16.816 19.3287 16.4263 19.2236 16.1094 18.9082C15.5326 18.334 14.8719 17.7138 14.2627 17.2344C13.9586 16.9951 13.6558 16.7817 13.375 16.626C13.1101 16.4791 12.7995 16.3457 12.4971 16.3457C12.1993 16.3457 11.8783 16.4769 11.5977 16.6211C11.2986 16.7747 10.9675 16.9855 10.6289 17.2246C9.95038 17.7037 9.19895 18.3244 8.53711 18.8994C8.18779 19.2029 7.77644 19.2747 7.45215 19.1865C7.13917 19.1013 6.87522 18.8609 6.79395 18.4424C6.51488 17.0044 6.25 14.8805 6.25 12C6.25 9.12652 6.54615 7.09969 6.84082 5.79492C7.08505 4.71356 7.9671 3.94375 9.10156 3.76855C10.0289 3.62535 11.2091 3.5 12.4971 3.5Z" stroke="black" stroke-linecap="round" stroke-linejoin="round" />

</symbol>
<!-- clock icon -->
<symbol id="clock_icon" viewBox="0 0 24 24" fill="none" xmlns="http://www.w3.org/2000/svg">
  <path d="M12 7.61537V12.5481L15.2885 15.2884M19.125 12C19.125 15.935 15.935 19.125 12 19.125C8.06497 19.125 4.875 15.935 4.875 12C4.875 8.06497 8.06497 4.875 12 4.875C15.935 4.875 19.125 8.06497 19.125 12Z" stroke="black" stroke-width="0.5" stroke-linecap="round" stroke-linejoin="round" />
</symbol>
<!-- стрілка вниз -->
<symbol id="arrow_down_icon" viewBox="0 0 17 17" fill="none" xmlns="http://www.w3.org/2000/svg">
  <path d="M13 6.25L8.5 10.75L4 6.25" stroke="black" stroke-linecap="round" stroke-linejoin="round" />
</symbol>
<!-- add photo icon -->
<symbol id="add_photo_icon" viewBox="0 0 163 136" fill="none" xmlns="http://www.w3.org/2000/svg">
  <path d="M99.9741 74.2115C99.9741 82.7879 91.703 89.7404 81.5001 89.7404C71.2972 89.7404 63.0261 82.7879 63.0261 74.2115C63.0261 65.6352 71.2972 58.6827 81.5001 58.6827C91.703 58.6827 99.9741 65.6352 99.9741 74.2115Z" stroke="#070707" />
  <path d="M33.4678 95.625L33.4678 57.7764C33.4678 51.4158 39.6019 46.2596 47.1688 46.2596C52.3584 46.2596 57.1026 43.7949 59.4234 39.8932L62.5286 34.673C65.0979 30.3535 70.3501 27.625 76.0954 27.625L86.9049 27.625C92.6502 27.6251 97.9023 30.3536 100.472 34.6731L103.577 39.8933C105.898 43.7951 110.642 46.2597 115.831 46.2597C123.398 46.2597 129.532 51.4159 129.532 57.7765V95.625C129.532 102.667 122.741 108.375 114.364 108.375H48.6359C40.2588 108.375 33.4678 102.667 33.4678 95.625Z" stroke="#070707" />
</symbol>
<!-- смітник -->
<symbol id="dump_icon" viewBox="0 0 24 24" fill="none" xmlns="http://www.w3.org/2000/svg">
  <path d="M12 16.3846L12 9.80769M4.875 7.06731H6.51923M19.125 7.06731H17.4808M14.7404 7.06731H9.25962M14.7404 7.06731V5.97115C14.7404 5.36576 14.2496 4.875 13.6442 4.875H10.3558C9.75038 4.875 9.25962 5.36576 9.25962 5.97115V7.06731M14.7404 7.06731H17.4808M9.25962 7.06731H6.51923M17.4808 7.06731V16.9327C17.4808 18.1435 16.4992 19.125 15.2885 19.125H8.71154C7.50076 19.125 6.51923 18.1435 6.51923 16.9327V7.06731" stroke="black" stroke-linecap="round" stroke-linejoin="round" />
</symbol>
<!-- burger menu -->
<symbol id="burger_menu_icon" viewBox="0 0 33 33" fill="none" xmlns="http://www.w3.org/2000/svg">
  <path d="M8 9.83398H25M8 21.834H25M8 15.834H25" stroke="white" stroke-width="1.33333" stroke-linecap="round" />
</symbol>
<!-- стрілка вліво -->
<symbol id="back_arrow_icon" viewBox="0 0 25 24" fill="none" xmlns="http://www.w3.org/2000/svg">
  <path d="M17 12.0023L7.99996 12.0023M7.99996 12.0023L12.0377 16.0414M7.99996 12.0023L12.0377 7.96306" stroke="white" stroke-linecap="round" stroke-linejoin="round" />
</symbol>
<!-- хрестик-->
<symbol id="dagger_icon" viewBox="0 0 24 24" fill="none" xmlns="http://www.w3.org/2000/svg">
  <path d="M5.25 5.25L12 12M12 12L5.25 18.75M12 12L18.75 18.75M12 12L18.75 5.25" stroke="black" stroke-linecap="round" stroke-linejoin="round" />
</symbol>

</svg>